# xmcd
#
# Track frame offsets:
#	150
#	33964
#	61187
#	91522
#	116947
#	144464
#	167955
#	191119
#	217964
#	240897
#	268838
#	296234
#	325953
#
# Disc length: 4631 seconds
#
# Revision: 1
# Processed by: cddbd v1.5.2PL0 Copyright (c) Steve Scherf et al.
# Submitted via: audiograbber 1.83.01
#
DISCID=bf12150d
DTITLE=Various Artist - Method Mix 15
DYEAR=2007
DGENRE=Hip Hop, Rap
TTITLE0=Kanye West - Stronger
TTITLE1=Nelly Furtado - Do It Right feat. Missy Elliott
TTITLE2=Cupid - Cupid Shuffle Remix feat. DJ UNK and Fabolous
TTITLE3=Gym Class Heroes - Clothes Off
TTITLE4=Pittsburgh Slim - Girls Kiss Girls
TTITLE5=Will.I.Am - I Got It From My Mama feat. Fergie
TTITLE6=Common - I Want You
TTITLE7=Sean Kingston - My Love
TTITLE8=Fergie - Big Girls Don't Cry feat. Sean Kingston
TTITLE9=Soldier Boy - Crank That
TTITLE10=Wyclef Jean - Sweetest Girl feat. Akon, Lil Wayne and Niia
TTITLE11=50 Cent - Ayo Technology (Joey Swass House Mash) feat. Justin Timberla
TTITLE11=ke
TTITLE12=Da Shop Boyz vs Tone Loc - Rock Star (Joey Swass Wild Thing Mash)
EXTD=
EXTT0=
EXTT1=
EXTT2=
EXTT3=
EXTT4=
EXTT5=
EXTT6=
EXTT7=
EXTT8=
EXTT9=
EXTT10=
EXTT11=
EXTT12=
PLAYORDER=
